<?xml version="1.0" encoding="UTF-8" standalone="no"?>
<!DOCTYPE svg PUBLIC "-//W3C//DTD SVG 1.1//EN" "http://www.w3.org/Graphics/SVG/1.1/DTD/svg11.dtd">
<svg width="100%" height="100%" viewBox="0 0 512 512" version="1.1" xmlns="http://www.w3.org/2000/svg" xmlns:xlink="http://www.w3.org/1999/xlink" xml:space="preserve" xmlns:serif="http://www.serif.com/" style="fill-rule:evenodd;clip-rule:evenodd;stroke-linejoin:round;stroke-miterlimit:2;">
    <g transform="matrix(1,0,0,1,2.02639,-4.05277)">
        <path d="M507.609,143.704C507.609,79.304 455.324,27.018 390.923,27.018L115.673,27.018C51.272,27.018 -1.013,79.304 -1.013,143.704L-1.013,377.077C-1.013,441.477 51.272,493.763 115.673,493.763L390.923,493.763C455.324,493.763 507.609,441.477 507.609,377.077L507.609,143.704Z" style="fill:rgb(236,205,205);"/>
    </g>
    <g id="New" transform="matrix(5.36638,6.61457e-32,6.61457e-32,5.36638,-6933.99,-4808.79)">
        <g transform="matrix(1,0,0,1,-63.5,-489.481)">
            <path d="M1383.5,1414.6L1413.5,1414.6L1411.5,1416.6L1385.5,1416.6L1385.5,1450.6L1419.5,1450.6L1419.5,1424.6L1421.5,1422.6L1421.5,1452.6L1383.5,1452.6L1383.5,1414.6ZM1421.9,1412L1402.5,1431.5L1404.6,1433.6L1424,1414.1L1425.5,1415.5L1405.7,1435.3L1399.1,1436.9L1400.7,1430.4L1420.5,1410.6L1421.9,1412ZM1429.3,1410.3L1425.8,1406.8C1425.4,1406.4 1424.8,1406.4 1424.4,1406.8L1422.1,1409.1L1427,1414L1429.3,1411.7C1429.6,1411.3 1429.6,1410.7 1429.3,1410.3Z"/>
        </g>
        <g transform="matrix(1.27273,-2.73691e-48,0,1.2963,992.364,882.667)">
            <rect x="248" y="18" width="55" height="54" style="fill:none;"/>
        </g>
    </g>
</svg>
